<mxfile host="Electron" modified="2024-05-27T15:16:56.449Z" agent="Mozilla/5.0 (Windows NT 10.0; Win64; x64) AppleWebKit/537.36 (KHTML, like Gecko) draw.io/24.4.8 Chrome/124.0.6367.207 Electron/30.0.6 Safari/537.36" etag="C4VAuZGFxPcqbSDGLDFU" version="24.4.8" type="device">
  <diagram name="Page-1" id="ZGm66PLJlixKSGV7x7j_">
    <mxGraphModel dx="954" dy="725" grid="1" gridSize="10" guides="1" tooltips="1" connect="1" arrows="1" fold="1" page="1" pageScale="1" pageWidth="2336" pageHeight="1654" math="0" shadow="0">
      <root>
        <mxCell id="0" />
        <mxCell id="1" parent="0" />
        <mxCell id="RSqV06irqAgmGkaijWYs-1" value="Instruction decoder" style="rounded=0;whiteSpace=wrap;html=1;" parent="1" vertex="1">
          <mxGeometry x="1830" y="286" width="120" height="60" as="geometry" />
        </mxCell>
        <mxCell id="RSqV06irqAgmGkaijWYs-2" value="" style="endArrow=classic;html=1;rounded=0;entryX=0.5;entryY=0;entryDx=0;entryDy=0;exitX=0.5;exitY=0;exitDx=0;exitDy=0;" parent="1" source="RSqV06irqAgmGkaijWYs-23" target="RSqV06irqAgmGkaijWYs-1" edge="1">
          <mxGeometry width="50" height="50" relative="1" as="geometry">
            <mxPoint x="1890" y="226" as="sourcePoint" />
            <mxPoint x="1860" y="166" as="targetPoint" />
            <Array as="points">
              <mxPoint x="1695" y="253" />
              <mxPoint x="1890" y="253" />
            </Array>
          </mxGeometry>
        </mxCell>
        <mxCell id="RSqV06irqAgmGkaijWYs-3" value="instr" style="edgeLabel;html=1;align=center;verticalAlign=middle;resizable=0;points=[];" parent="RSqV06irqAgmGkaijWYs-2" vertex="1" connectable="0">
          <mxGeometry x="-0.1467" y="-1" relative="1" as="geometry">
            <mxPoint x="17" as="offset" />
          </mxGeometry>
        </mxCell>
        <mxCell id="RSqV06irqAgmGkaijWYs-4" value="instruction pointer" style="rounded=0;whiteSpace=wrap;html=1;" parent="1" vertex="1">
          <mxGeometry x="1855" y="546" width="120" height="60" as="geometry" />
        </mxCell>
        <mxCell id="RSqV06irqAgmGkaijWYs-5" value="" style="shape=trapezoid;perimeter=trapezoidPerimeter;whiteSpace=wrap;html=1;fixedSize=1;rotation=-180;" parent="1" vertex="1">
          <mxGeometry x="1840" y="488" width="150" height="30" as="geometry" />
        </mxCell>
        <mxCell id="RSqV06irqAgmGkaijWYs-6" value="MUX" style="text;html=1;align=center;verticalAlign=middle;whiteSpace=wrap;rounded=0;" parent="1" vertex="1">
          <mxGeometry x="1885" y="488" width="60" height="30" as="geometry" />
        </mxCell>
        <mxCell id="RSqV06irqAgmGkaijWYs-7" value="" style="endArrow=classic;html=1;rounded=0;entryX=0.5;entryY=0;entryDx=0;entryDy=0;exitX=0.5;exitY=0;exitDx=0;exitDy=0;" parent="1" source="RSqV06irqAgmGkaijWYs-5" target="RSqV06irqAgmGkaijWYs-4" edge="1">
          <mxGeometry width="50" height="50" relative="1" as="geometry">
            <mxPoint x="1810" y="546" as="sourcePoint" />
            <mxPoint x="1860" y="496" as="targetPoint" />
          </mxGeometry>
        </mxCell>
        <mxCell id="RSqV06irqAgmGkaijWYs-8" value="" style="endArrow=classic;html=1;rounded=0;exitX=1;exitY=0.5;exitDx=0;exitDy=0;entryX=0.086;entryY=1.006;entryDx=0;entryDy=0;entryPerimeter=0;" parent="1" source="RSqV06irqAgmGkaijWYs-4" target="RSqV06irqAgmGkaijWYs-5" edge="1">
          <mxGeometry width="50" height="50" relative="1" as="geometry">
            <mxPoint x="1970" y="656" as="sourcePoint" />
            <mxPoint x="1977" y="486" as="targetPoint" />
            <Array as="points">
              <mxPoint x="2040" y="576" />
              <mxPoint x="2040" y="506" />
              <mxPoint x="2040" y="466" />
              <mxPoint x="1977" y="466" />
            </Array>
          </mxGeometry>
        </mxCell>
        <mxCell id="RSqV06irqAgmGkaijWYs-9" value="+1" style="edgeLabel;html=1;align=center;verticalAlign=middle;resizable=0;points=[];" parent="RSqV06irqAgmGkaijWYs-8" vertex="1" connectable="0">
          <mxGeometry x="-0.2624" relative="1" as="geometry">
            <mxPoint y="-20" as="offset" />
          </mxGeometry>
        </mxCell>
        <mxCell id="RSqV06irqAgmGkaijWYs-10" value="" style="endArrow=classic;html=1;rounded=0;exitX=0;exitY=0.25;exitDx=0;exitDy=0;entryX=0;entryY=0.5;entryDx=0;entryDy=0;" parent="1" source="RSqV06irqAgmGkaijWYs-1" target="RSqV06irqAgmGkaijWYs-4" edge="1">
          <mxGeometry width="50" height="50" relative="1" as="geometry">
            <mxPoint x="1830" y="339" as="sourcePoint" />
            <mxPoint x="1810" y="236" as="targetPoint" />
            <Array as="points">
              <mxPoint x="1780" y="301" />
              <mxPoint x="1780" y="576" />
            </Array>
          </mxGeometry>
        </mxCell>
        <mxCell id="RSqV06irqAgmGkaijWYs-11" value="latch_ip" style="edgeLabel;html=1;align=center;verticalAlign=middle;resizable=0;points=[];" parent="RSqV06irqAgmGkaijWYs-10" vertex="1" connectable="0">
          <mxGeometry x="-0.0623" relative="1" as="geometry">
            <mxPoint y="11" as="offset" />
          </mxGeometry>
        </mxCell>
        <mxCell id="RSqV06irqAgmGkaijWYs-12" value="" style="endArrow=classic;html=1;rounded=0;exitX=0;exitY=0.75;exitDx=0;exitDy=0;entryX=1;entryY=0.5;entryDx=0;entryDy=0;" parent="1" source="RSqV06irqAgmGkaijWYs-1" target="RSqV06irqAgmGkaijWYs-5" edge="1">
          <mxGeometry width="50" height="50" relative="1" as="geometry">
            <mxPoint x="1830" y="351" as="sourcePoint" />
            <mxPoint x="1820" y="366" as="targetPoint" />
            <Array as="points">
              <mxPoint x="1810" y="331" />
              <mxPoint x="1810" y="503" />
            </Array>
          </mxGeometry>
        </mxCell>
        <mxCell id="RSqV06irqAgmGkaijWYs-13" value="sig_ip" style="edgeLabel;html=1;align=center;verticalAlign=middle;resizable=0;points=[];" parent="RSqV06irqAgmGkaijWYs-12" vertex="1" connectable="0">
          <mxGeometry x="-0.1912" y="1" relative="1" as="geometry">
            <mxPoint as="offset" />
          </mxGeometry>
        </mxCell>
        <mxCell id="RSqV06irqAgmGkaijWYs-14" value="" style="endArrow=classic;html=1;rounded=0;exitX=0.5;exitY=1;exitDx=0;exitDy=0;entryX=0.768;entryY=0.998;entryDx=0;entryDy=0;entryPerimeter=0;" parent="1" source="RSqV06irqAgmGkaijWYs-18" target="RSqV06irqAgmGkaijWYs-5" edge="1">
          <mxGeometry width="50" height="50" relative="1" as="geometry">
            <mxPoint x="1850" y="436" as="sourcePoint" />
            <mxPoint x="1870" y="486" as="targetPoint" />
          </mxGeometry>
        </mxCell>
        <mxCell id="RSqV06irqAgmGkaijWYs-15" value="" style="endArrow=classic;html=1;rounded=0;exitX=0.5;exitY=1;exitDx=0;exitDy=0;entryX=0.233;entryY=1.007;entryDx=0;entryDy=0;entryPerimeter=0;" parent="1" source="RSqV06irqAgmGkaijWYs-17" target="RSqV06irqAgmGkaijWYs-5" edge="1">
          <mxGeometry width="50" height="50" relative="1" as="geometry">
            <mxPoint x="1900" y="436" as="sourcePoint" />
            <mxPoint x="1955" y="486" as="targetPoint" />
          </mxGeometry>
        </mxCell>
        <mxCell id="RSqV06irqAgmGkaijWYs-16" value="ALU" style="edgeLabel;html=1;align=center;verticalAlign=middle;resizable=0;points=[];" parent="RSqV06irqAgmGkaijWYs-15" vertex="1" connectable="0">
          <mxGeometry x="-0.1852" relative="1" as="geometry">
            <mxPoint as="offset" />
          </mxGeometry>
        </mxCell>
        <mxCell id="RSqV06irqAgmGkaijWYs-17" value="Datapath" style="rounded=0;whiteSpace=wrap;html=1;fillColor=none;dashed=1;" parent="1" vertex="1">
          <mxGeometry x="1920" y="406" width="70" height="30" as="geometry" />
        </mxCell>
        <mxCell id="RSqV06irqAgmGkaijWYs-18" value="bit_mask" style="rounded=0;whiteSpace=wrap;html=1;" parent="1" vertex="1">
          <mxGeometry x="1850" y="436" width="50" height="30" as="geometry" />
        </mxCell>
        <mxCell id="RSqV06irqAgmGkaijWYs-19" value="" style="endArrow=classic;html=1;rounded=0;entryX=0.5;entryY=0;entryDx=0;entryDy=0;" parent="1" target="RSqV06irqAgmGkaijWYs-18" edge="1">
          <mxGeometry width="50" height="50" relative="1" as="geometry">
            <mxPoint x="1875" y="376" as="sourcePoint" />
            <mxPoint x="1874.76" y="423.5" as="targetPoint" />
          </mxGeometry>
        </mxCell>
        <mxCell id="RSqV06irqAgmGkaijWYs-20" value="instr" style="edgeLabel;html=1;align=center;verticalAlign=middle;resizable=0;points=[];" parent="RSqV06irqAgmGkaijWYs-19" vertex="1" connectable="0">
          <mxGeometry x="-0.1534" y="1" relative="1" as="geometry">
            <mxPoint x="-1" y="3" as="offset" />
          </mxGeometry>
        </mxCell>
        <mxCell id="RSqV06irqAgmGkaijWYs-21" value="" style="endArrow=classic;html=1;rounded=0;exitX=0.5;exitY=1;exitDx=0;exitDy=0;entryX=0.5;entryY=1;entryDx=0;entryDy=0;" parent="1" source="RSqV06irqAgmGkaijWYs-4" target="RSqV06irqAgmGkaijWYs-23" edge="1">
          <mxGeometry width="50" height="50" relative="1" as="geometry">
            <mxPoint x="1887.37" y="751.5" as="sourcePoint" />
            <mxPoint x="1915" y="652.5" as="targetPoint" />
            <Array as="points">
              <mxPoint x="1915" y="633" />
              <mxPoint x="1695" y="633" />
            </Array>
          </mxGeometry>
        </mxCell>
        <mxCell id="RSqV06irqAgmGkaijWYs-22" value="IP" style="edgeLabel;html=1;align=center;verticalAlign=middle;resizable=0;points=[];" parent="RSqV06irqAgmGkaijWYs-21" vertex="1" connectable="0">
          <mxGeometry x="-0.1468" relative="1" as="geometry">
            <mxPoint x="-18" as="offset" />
          </mxGeometry>
        </mxCell>
        <mxCell id="RSqV06irqAgmGkaijWYs-23" value="Middleware" style="rounded=0;whiteSpace=wrap;html=1;fillColor=none;dashed=1;" parent="1" vertex="1">
          <mxGeometry x="1660" y="286" width="70" height="304" as="geometry" />
        </mxCell>
      </root>
    </mxGraphModel>
  </diagram>
</mxfile>
